HIERARCHY
ROOT Hips
{
     OFFSET 30.06930 95.13880 12.78290
     CHANNELS 6 Xposition Yposition Zposition Zrotation Xrotation Yrotation
     JOINT Spine
     {
          OFFSET -0.00000 11.89050 0.00000
          CHANNELS 3 Zrotation Xrotation Yrotation
          JOINT Spine1
          {
               OFFSET 0.00000 25.65740 0.12766
               CHANNELS 3 Zrotation Xrotation Yrotation
               JOINT HEad
               {
                    OFFSET -0.00000 8.73416 0.01134
                    CHANNELS 3 Zrotation Xrotation Yrotation
                    End Site
                    {
                         OFFSET -0.29000 12.77420 2.51395
                    }
               }
               JOINT LeftShoulder1
               {
                    OFFSET 8.99000 -0.36225 -0.22000
                    CHANNELS 3 Zrotation Xrotation Yrotation
                    JOINT LeftArm
                    {
                         OFFSET 10.28270 -0.00338 0.32212
                         CHANNELS 3 Zrotation Xrotation Yrotation
                         JOINT LeftForeArm
                         {
                              OFFSET 32.76690 0.09914 -1.42434
                              CHANNELS 3 Zrotation Xrotation Yrotation
                              JOINT LeftHand
                              {
                                   OFFSET 27.56430 0.08536 1.02216
                                   CHANNELS 3 Zrotation Xrotation Yrotation
                                   End Site
                                   {
                                        OFFSET 16.74430 -0.60000 1.50291
                                   }
                              }
                         }
                    }
               }
               JOINT RightShoulder
               {
                    OFFSET -8.99000 -0.36225 -0.22000
                    CHANNELS 3 Zrotation Xrotation Yrotation
                    JOINT RightArm
                    {
                         OFFSET -10.28270 -0.00338 0.32212
                         CHANNELS 3 Zrotation Xrotation Yrotation
                         JOINT RightForeArm
                         {
                              OFFSET -32.89710 0.09914 -1.42434
                              CHANNELS 3 Zrotation Xrotation Yrotation
                              JOINT RightHand
                              {
                                   OFFSET -27.49210 0.08536 1.02216
                                   CHANNELS 3 Zrotation Xrotation Yrotation
                                   End Site
                                   {
                                        OFFSET -16.63120 -0.60000 1.50291
                                   }
                              }
                         }
                    }
               }
          }
     }
     JOINT LeftUpLeg
     {
          OFFSET 8.94580 -8.66707 0.10165
          CHANNELS 3 Zrotation Xrotation Yrotation
          JOINT LeftLeg
          {
               OFFSET -0.00000 -44.42270 1.37270
               CHANNELS 3 Zrotation Xrotation Yrotation
               JOINT LeftFoot
               {
                    OFFSET -0.25355 -42.09240 -1.46059
                    CHANNELS 3 Zrotation Xrotation Yrotation
                    JOINT LeftToes
                    {
                         OFFSET -0.04000 -4.41509 8.49910
                         CHANNELS 3 Zrotation Xrotation Yrotation
                         End Site
                         {
                              OFFSET 0.08000 -0.04745 9.77979
                         }
                    }
               }
          }
     }
     JOINT RightUpLeg
     {
          OFFSET -8.94580 -8.66707 0.10165
          CHANNELS 3 Zrotation Xrotation Yrotation
          JOINT RightLeg
          {
               OFFSET -0.00000 -44.42270 1.37270
               CHANNELS 3 Zrotation Xrotation Yrotation
               JOINT RightFoot
               {
                    OFFSET 0.25355 -42.09240 -1.46059
                    CHANNELS 3 Zrotation Xrotation Yrotation
                    JOINT RightToes
                    {
                         OFFSET 0.04000 -4.41509 8.49910
                         CHANNELS 3 Zrotation Xrotation Yrotation
                         End Site
                         {
                              OFFSET -0.08000 -0.13745 9.77979
                         }
                    }
               }
          }
     }
}
MOTION
Frames: 10
Frame Time: 0.01667
20.63970 95.32180 8.64964 -11.73070 -1.62194 -94.14040 -13.77500 9.40785 0.10359 -2.96720 20.20680 -4.48210 2.08234 -2.56458 4.86063 -0.00000 -0.00000 0.00000 -108.05100 -56.87830 -81.01910 -34.40880 52.38390 -80.21980 21.23860 6.07005 -16.79530 20.85030 0.70509 0.67288 78.71190 -5.30071 65.14450 13.66450 31.81630 99.43920 17.76880 11.73610 7.11560 22.30470 -7.30426 -11.29030 -43.26100 34.82000 96.49580 -0.27498 6.86678 -0.02207 5.08760 -21.71500 -60.33520 -24.26580 2.21561 3.03559 40.45510 4.66142 -40.47080 -43.07120 6.79194 5.62078 13.74670 -56.42540 19.79140 
20.18780 95.14320 8.73042 -12.33380 -1.51248 -96.21720 -14.58850 9.70390 0.19430 -3.11976 20.75960 -4.56593 1.02390 -3.15394 6.24705 -0.00000 -0.00000 0.00000 -110.73400 -57.63080 -83.13560 -35.20850 53.93740 -79.88740 21.44570 6.13516 -16.23820 21.27570 0.87654 1.36622 77.88860 -5.21230 65.25630 13.29350 31.77860 99.74220 16.61680 11.61980 7.11215 21.43760 -8.73405 -8.48310 -44.22190 37.73020 96.06680 0.55480 7.00174 -0.12842 4.17147 -24.33270 -60.78090 -24.54780 2.47975 3.01941 40.57360 5.12248 -39.67260 -45.54480 6.74224 5.96349 13.47560 -57.03420 18.69890 
19.67390 95.31380 8.90975 -12.83590 -0.45102 -97.97900 -13.52160 10.10620 -0.01291 -2.50738 21.23560 -4.82097 -0.41611 -2.62465 7.17346 -0.00000 -0.00000 0.00000 -109.94500 -57.36820 -82.09280 -33.66060 53.00110 -81.10510 21.34450 6.15323 -16.24240 19.98030 0.76759 1.04397 79.43820 -5.37711 65.38240 13.93140 32.22900 99.09960 18.16920 11.79800 7.24680 21.34190 -9.70899 -6.25454 -43.98770 39.37850 94.41200 0.65096 5.81831 -0.12693 4.33311 -23.81340 -61.98970 -23.50790 3.05328 3.07762 39.76690 5.34838 -38.04190 -43.92570 7.25871 5.93527 13.93390 -56.27960 20.33110 
19.29070 95.07630 9.19254 -13.27620 0.08950 -99.67890 -13.08210 10.51420 -0.12884 -2.11651 21.69330 -4.79730 -0.29089 -3.25983 7.80511 -0.00000 -0.00000 0.00000 -114.16500 -58.83120 -85.12380 -37.84980 55.68230 -77.32630 22.41530 5.87243 -16.65210 19.05240 0.74766 1.06342 79.71680 -5.45805 65.52700 14.83870 32.38730 98.55640 17.85650 11.70260 6.85411 21.07240 -10.87980 -4.61749 -44.07780 39.76980 94.20200 2.01944 6.46465 -0.30271 2.75434 -27.55710 -65.23230 -23.60320 3.07215 3.61015 40.05260 5.69150 -38.31240 -44.82350 8.15067 6.44176 15.32910 -57.59170 22.24980 
18.92670 94.77140 9.40360 -13.93930 0.72180 -100.89400 -12.43260 11.15140 -0.38727 -2.36350 22.57570 -4.81434 -1.34078 -3.19435 8.55398 -0.00000 -0.00000 0.00000 -114.68000 -58.15080 -85.82560 -36.43900 55.10330 -78.21440 21.42940 6.17570 -16.03840 20.71490 0.93924 1.71233 78.40920 -5.85690 65.56550 13.65630 32.09590 99.48130 17.33380 11.70330 7.18551 20.74910 -11.91750 -3.88729 -43.62760 39.49720 92.71640 0.95491 8.15646 -0.19592 2.27228 -28.56030 -66.18130 -23.11610 3.61181 3.85004 39.63520 5.94979 -38.42940 -46.64400 8.47950 6.87982 15.72700 -58.88190 21.97160 
18.38330 94.33110 9.71778 -14.16900 1.48691 -102.20600 -11.67150 11.62090 -0.58658 -2.40239 23.08370 -4.58945 -1.14646 -2.60204 9.24595 -0.00000 -0.00000 0.00000 -111.75400 -57.25490 -83.59860 -35.19610 53.34920 -78.95890 20.74790 6.23698 -16.39320 20.97920 1.00209 1.94781 78.36580 -5.85766 65.58390 14.17310 31.86800 99.02520 17.46530 11.70390 7.10516 20.95480 -13.02610 -3.36931 -43.55000 38.25330 91.02760 1.95641 7.83882 -0.32645 1.87760 -29.95450 -63.83820 -22.68490 2.52812 3.60939 39.66230 8.87068 -39.34490 -46.33780 7.82007 6.54505 16.73490 -59.48290 23.50460 
17.85370 93.93220 9.88855 -14.69870 2.23077 -103.57900 -10.52520 12.23410 -0.87011 -2.16553 23.92350 -4.55724 -1.02512 -3.27752 9.94820 -0.00000 -0.00000 0.00000 -113.01900 -57.68710 -85.05780 -36.80780 53.75790 -77.39830 21.22400 6.22711 -15.96560 20.40740 0.92030 1.67216 78.41060 -4.87454 65.85750 14.56470 31.52490 98.66050 17.13590 11.68570 7.20085 21.10770 -13.68120 -3.81119 -42.83560 36.28740 89.89260 0.74179 8.40696 -0.16971 1.85047 -30.03860 -63.75870 -22.01140 1.70792 4.07365 39.33740 11.49880 -40.73580 -46.47360 7.10467 6.25782 18.42260 -61.24230 25.24620 
17.26820 93.40720 10.15160 -14.74490 2.81702 -104.57300 -9.35391 12.67410 -1.26166 -2.22858 24.40500 -4.50034 -1.10340 -3.30642 10.66140 -0.00000 -0.00000 0.00000 -116.09800 -58.61180 -87.45100 -37.63200 54.83520 -76.76860 20.61580 6.31388 -16.10380 20.86000 0.89478 1.49832 78.77020 -5.16113 65.80390 14.71420 31.92430 98.55350 18.01070 11.80020 7.35884 21.31290 -14.79850 -4.98939 -42.02180 33.43370 89.18540 1.32507 8.47749 -0.25246 1.65258 -30.51990 -63.79480 -21.63320 0.34776 3.74677 39.44110 14.70640 -42.07230 -45.77720 6.17544 5.75702 19.65000 -61.36060 27.46270 
16.51880 92.85480 10.35370 -14.59430 3.64810 -105.79700 -7.93946 13.13870 -1.45100 -2.12244 25.03740 -4.10306 -1.12219 -3.46324 10.97900 -0.00000 -0.00000 0.00000 -115.61200 -57.89300 -87.54020 -37.12290 54.11270 -76.76720 20.40960 6.31131 -16.33170 20.12930 0.77440 1.05715 79.80240 -4.43281 66.36030 14.09890 31.85700 99.14710 17.93340 11.67940 6.66484 22.15960 -15.71940 -6.15761 -40.80220 30.52070 89.40370 1.52607 8.91149 -0.28900 1.03099 -31.08520 -67.72540 -20.84360 -0.84847 3.81386 39.31980 17.19550 -43.85160 -45.96800 5.38289 5.44572 21.67360 -62.07200 30.51800 
15.58630 92.18210 10.50960 -15.07360 4.39703 -106.82000 -6.40171 13.46980 -1.90084 -1.65996 25.58130 -4.46587 -2.51628 -3.35507 11.29320 -0.00000 -0.00000 0.00000 -115.36000 -58.37310 -87.14510 -37.35350 53.09350 -76.77750 20.25660 6.23732 -16.91080 18.35670 0.91029 1.93792 80.62580 -4.53441 66.28810 14.06900 31.98530 98.80750 16.96100 11.62590 6.92738 22.80530 -15.68000 -8.81148 -40.01180 26.39560 88.00030 1.27340 9.00445 -0.25417 1.75640 -29.59270 -67.07750 -20.46390 -1.46666 3.99780 39.78990 20.33870 -44.61270 -45.77990 3.70240 4.70531 21.18920 -61.81120 29.89140 
